<svg width="32" height="29" fill="none" xmlns="http://www.w3.org/2000/svg"><path d="M17.293 14.604a6.304 6.304 0 0 0-2.215-3.84 6.416 6.416 0 0 0-4.216-1.46 6.418 6.418 0 0 0-2.477.434A6.372 6.372 0 0 0 6.27 11.09a6.302 6.302 0 0 0-1.42 2.058 6.253 6.253 0 0 0-.503 2.442v.317c0 .02-.007.04-.007.061v6.22a3.167 3.167 0 0 1-1.84-.745 3.116 3.116 0 0 1-1.023-1.688 3.094 3.094 0 0 1 .2-1.958 3.132 3.132 0 0 1 1.344-1.45.698.698 0 0 0 .355-.687.69.69 0 0 0-.504-.588.706.706 0 0 0-.533.061 4.526 4.526 0 0 0-1.971 2.166 4.471 4.471 0 0 0-.222 2.909 4.509 4.509 0 0 0 1.621 2.434 4.583 4.583 0 0 0 2.786.944c.158-.002.315-.01.472-.028h.016a.65.65 0 0 0 .065-.006h.006a.701.701 0 0 0 .448-.224.688.688 0 0 0 .182-.464v-6.137c0-.02.006-.04.006-.06v-1.078a4.83 4.83 0 0 1 .385-1.918 4.87 4.87 0 0 1 1.115-1.613 4.925 4.925 0 0 1 1.666-1.049 4.96 4.96 0 0 1 1.948-.315 4.96 4.96 0 0 1 1.948.315 4.925 4.925 0 0 1 1.666 1.05 4.871 4.871 0 0 1 1.116 1.613 4.83 4.83 0 0 1 .385 1.917v.287a.573.573 0 0 0-.009.09v6.705c0 .018-.006.036-.006.054v1.561a1.717 1.717 0 0 1-.51 1.306 1.75 1.75 0 0 1-1.318.506h-.964a1.814 1.814 0 0 0-.668-.845 1.84 1.84 0 0 0-1.034-.321h-1.2a1.84 1.84 0 0 0-1.273.542 1.803 1.803 0 0 0 0 2.539c.336.338.793.533 1.272.541h1.2a1.827 1.827 0 0 0 1.666-1.074.542.542 0 0 0 .058.006h.944a3.152 3.152 0 0 0 2.316-.905 3.091 3.091 0 0 0 .913-2.294v-.679a4.567 4.567 0 0 0 3.098-1.4 4.482 4.482 0 0 0 1.249-3.136 4.483 4.483 0 0 0-1.298-3.117 4.569 4.569 0 0 0-3.12-1.351zm-5.826 12.564h-1.2a.429.429 0 0 1-.302-.124.421.421 0 0 1 .302-.722h1.2c.113 0 .222.044.302.124a.421.421 0 0 1-.302.722zm5.901-4.948v-5.462a.664.664 0 0 0 .009-.091v-.672a3.161 3.161 0 0 1 2.086.986c.544.578.847 1.34.845 2.13a3.103 3.103 0 0 1-.85 2.13 3.162 3.162 0 0 1-2.09.979z" fill="#C4C4C4"/><path d="M20.426.593a10.701 10.701 0 0 0-6.011 1.82 10.547 10.547 0 0 0-3.922 4.865.689.689 0 0 0 .393.901.706.706 0 0 0 .91-.39 9.224 9.224 0 0 1 4.16-4.672 9.36 9.36 0 0 1 6.211-.973 9.302 9.302 0 0 1 5.413 3.172 9.142 9.142 0 0 1 2.13 5.861 9.18 9.18 0 0 1-1.653 5.221 9.317 9.317 0 0 1-4.345 3.38.702.702 0 0 0-.398.363.69.69 0 0 0 .353.925.706.706 0 0 0 .541.01 10.657 10.657 0 0 0 5.523-4.694 10.498 10.498 0 0 0 1.207-7.11 10.564 10.564 0 0 0-3.669-6.225A10.748 10.748 0 0 0 20.426.593z" fill="#C4C4C4"/><path d="M20.95 4.345a.706.706 0 0 0-.649.428.688.688 0 0 0-.054.266v5.725a.691.691 0 0 0 .01.093.686.686 0 0 0 .218.616l3.306 3.016a.701.701 0 0 0 .77.12.7.7 0 0 0 .362-.392.688.688 0 0 0-.183-.75l-3.081-2.81V5.04a.686.686 0 0 0-.204-.491.7.7 0 0 0-.495-.205z" fill="#C4C4C4"/></svg>